<?xml version="1.0" encoding="UTF-8"?>
<svg width="142px" height="98px" viewBox="0 0 142 98" version="1.1" xmlns="http://www.w3.org/2000/svg" xmlns:xlink="http://www.w3.org/1999/xlink">
    <!-- Generator: Sketch 60 (88103) - https://sketch.com -->
    <title>Regular-M</title>
    <desc>Created with Sketch.</desc>
    <g id="Page-1" stroke="none" stroke-width="1" fill="none" fill-rule="evenodd">
        <g id="speaker.3" transform="translate(-1379.000000, -1042.000000)" fill="#000000" fill-rule="nonzero">
            <g id="Symbols" transform="translate(469.000000, 615.000000)">
                <g id="Regular-M" transform="translate(909.600000, 427.000000)">
                    <path d="M122.029,96.6953 C123.836,97.916 126.229,97.4277 127.645,95.4258 C136.678,82.68164 141.805,66.1777 141.805,48.7461 C141.805,31.3145 136.531,14.8594 127.645,2.0664 C126.229,0.0156 123.836,-0.4727 122.029,0.7969 C120.174,2.1152 119.881,4.5078 121.297,6.5586 C129.158,18.1309 134.041,32.9746 134.041,48.7461 C134.041,64.5176 129.354,79.60547 121.297,90.93359 C119.881,92.98438 120.174,95.377 122.029,96.6953 Z M11.2383,69.4004 L25.7402,69.4004 C26.2285,69.4004 26.668,69.5469 26.9609,69.8398 L49.9102,90.39648 C52.3027,92.54492 54.207,93.57031 56.5996,93.57031 C59.9199,93.57031 62.3125,91.12891 62.3125,87.85742 L62.3125,9.9766 C62.3125,6.7051 59.9199,4.0195 56.502,4.0195 C54.1094,4.0195 52.5469,5.1426 49.9102,7.4863 L26.9609,27.8477 C26.668,28.1406 26.2285,28.2871 25.7402,28.2871 L11.2383,28.2871 C4.3047,28.2871 0.88672,31.7539 0.88672,39.127 L0.88672,58.5605 C0.88672,65.9336 4.3047,69.4004 11.2383,69.4004 Z M102.352,83.365234 C104.256,84.634766 106.6,84.146484 107.967,82.19336 C114.412,73.209 118.172,61.2461 118.172,48.7461 C118.172,36.1973 114.51,24.1855 107.967,15.25 C106.551,13.3457 104.256,12.8574 102.352,14.127 C100.496,15.3965 100.203,17.7891 101.668,19.8887 C106.99,27.7012 110.311,37.9551 110.311,48.7461 C110.311,59.5371 107.039,69.8887 101.668,77.60352 C100.252,79.70312 100.496,82.0957 102.352,83.365234 Z M11.5801,62.0273 C9.6758,62.0273 8.748,61.1484 8.748,59.1953 L8.748,38.4922 C8.748,36.5879 9.6758,35.6602 11.5801,35.6602 L27.8398,35.6602 C29.1582,35.6602 30.0859,35.4648 31.3066,34.3418 L52.9375,14.7129 C53.1816,14.5176 53.4746,14.3223 53.7676,14.3223 C54.1582,14.3223 54.4512,14.6152 54.4512,15.0059 L54.4512,82.53516 C54.4512,82.97461 54.207,83.267578 53.7676,83.267578 C53.5234,83.267578 53.2305,83.121094 52.9375,82.82812 L31.3066,63.3457 C30.0859,62.2715 29.1582,62.0273 27.8398,62.0273 L11.5801,62.0273 Z M82.8691,70.1816 C84.5293,71.3535 86.9219,71.0117 88.3379,69.0586 C92.146,63.9316 94.441,56.4121 94.441,48.7461 C94.441,41.0801 92.146,33.6094 88.3379,28.4336 C86.9219,26.4805 84.5781,26.1387 82.8691,27.2617 C80.7695,28.7266 80.4766,31.2168 82.0391,33.3164 C84.8711,37.125 86.5801,42.9355 86.5801,48.7461 C86.5801,54.5566 84.7734,60.3672 81.9902,64.2246 C80.5254,66.3242 80.7695,68.7168 82.8691,70.1816 Z" id="Shape"></path>
                </g>
            </g>
        </g>
    </g>
</svg>