<?xml version="1.0" encoding="UTF-8"?>
<svg width="86px" height="48px" viewBox="0 0 86 48" version="1.1" xmlns="http://www.w3.org/2000/svg" xmlns:xlink="http://www.w3.org/1999/xlink">
    <!-- Generator: Sketch 60 (88103) - https://sketch.com -->
    <title>Regular-M</title>
    <desc>Created with Sketch.</desc>
    <g id="Page-1" stroke="none" stroke-width="1" fill="none" fill-rule="evenodd">
        <g id="chevron.down" transform="translate(-1407.000000, -1069.000000)" fill="#000000" fill-rule="nonzero">
            <g id="Symbols" transform="translate(512.000000, 638.000000)">
                <g id="Regular-M" transform="translate(894.990000, 431.000000)">
                    <path d="M42.8828,47.77148 C44.1035,47.77148 45.3242,47.2832 46.1543,46.3555 L83.9473,7.6348 C84.7773,6.8047 85.2656,5.7305 85.2656,4.5098 C85.2656,1.9707 83.3613,0.0176 80.8223,0.0176 C79.6016,0.0176 78.4785,0.5059 77.6484,1.2871 L42.8828,36.834 L8.0684,1.2871 C7.2871,0.5059 6.1641,0.0176 4.8945,0.0176 C2.3555,0.0176 0.4512,1.9707 0.4512,4.5098 C0.4512,5.7305 0.9395,6.8047 1.7695,7.6836 L39.5625,46.3555 C40.4902,47.2832 41.6133,47.77148 42.8828,47.77148 Z" id="Path"></path>
                </g>
            </g>
        </g>
    </g>
</svg>