<?xml version="1.0" encoding="UTF-8"?>
<svg width="93px" height="20px" viewBox="0 0 93 20" version="1.1" xmlns="http://www.w3.org/2000/svg" xmlns:xlink="http://www.w3.org/1999/xlink">
    <!-- Generator: Sketch 60 (88103) - https://sketch.com -->
    <title>Regular-M</title>
    <desc>Created with Sketch.</desc>
    <g id="Page-1" stroke="none" stroke-width="1" fill="none" fill-rule="evenodd">
        <g id="ellipsis" transform="translate(-1403.000000, -1081.000000)" fill="#000000" fill-rule="nonzero">
            <g id="Symbols" transform="translate(509.000000, 650.000000)">
                <g id="Regular-M" transform="translate(894.060000, 431.000000)">
                    <path d="M20.418,9.7949 C20.418,4.375 16.0234,0.0293 10.5059,0.0293 C5.1348,0.0293 0.74023,4.375 0.74023,9.7949 C0.74023,15.2148 5.1348,19.5605 10.5059,19.5605 C16.0234,19.5605 20.418,15.2148 20.418,9.7949 Z M56.5508,9.7949 C56.5508,4.375 52.2051,0.0293 46.7852,0.0293 C41.4141,0.0293 37.0684,4.375 37.0684,9.7949 C37.0684,15.2148 41.4141,19.5605 46.7852,19.5605 C52.2051,19.5605 56.5508,15.2148 56.5508,9.7949 Z M92.83,9.7949 C92.83,4.375 88.4844,0.0293 83.0645,0.0293 C77.5469,0.0293 73.2012,4.375 73.2012,9.7949 C73.2012,15.2148 77.5469,19.5605 83.0645,19.5605 C88.4844,19.5605 92.83,15.2148 92.83,9.7949 Z" id="Shape"></path>
                </g>
            </g>
        </g>
    </g>
</svg>