<?xml version="1.0" encoding="UTF-8"?>
<svg width="104px" height="105px" viewBox="0 0 104 105" version="1.1" xmlns="http://www.w3.org/2000/svg" xmlns:xlink="http://www.w3.org/1999/xlink">
    <!-- Generator: Sketch 60 (88103) - https://sketch.com -->
    <title>Regular-M</title>
    <desc>Created with Sketch.</desc>
    <g id="Page-1" stroke="none" stroke-width="1" fill="none" fill-rule="evenodd">
        <g id="link" transform="translate(-1398.000000, -1038.000000)" fill="#000000" fill-rule="nonzero">
            <g id="Symbols" transform="translate(497.000000, 616.000000)">
                <g id="Regular-M" transform="translate(900.830000, 422.000000)">
                    <path d="M51.4023,72.4727 L57.8965,65.8809 C51.4512,65.3926 47.252,63.4395 44.0781,60.2656 C35.5332,51.7207 35.582,39.6113 44.0293,31.1641 L59.9473,15.2461 C68.4922,6.75 80.5039,6.7012 89.049,15.2461 C97.594,23.791 97.496,35.8516 89.049,44.2988 L79.4785,53.8691 C80.8457,56.9941 81.1387,60.6074 80.6504,63.7812 L95.006,49.4746 C106.676,37.7559 106.773,21.2031 94.957,9.3379 C83.0918,-2.5273 66.4902,-2.4297 54.7715,9.2891 L38.1211,25.9883 C26.4023,37.707 26.3047,54.3086 38.1699,66.125 C41.2461,69.2012 45.1523,71.3984 51.4023,72.4727 Z M52.623,32.2383 L46.1289,38.8301 C52.5742,39.3672 56.7734,41.2715 59.9473,44.4453 C68.4922,52.9902 68.4434,65.0996 59.9961,73.5469 L44.0293,89.46484 C35.5332,97.96094 23.5215,98.0098 14.9766,89.51367 C6.4316,80.91992 6.4805,68.9082 14.9766,60.4121 L24.5469,50.8418 C23.1797,47.7656 22.8379,44.1035 23.375,40.9297 L9.0195,55.2363 C-2.65039,66.9551 -2.74805,83.55664 9.0684,95.37305 C20.9336,107.2383 37.5352,107.1406 49.2051,95.4707 L65.9043,78.72266 C77.623,67.0039 77.7207,50.4023 65.8555,38.5859 C62.7793,35.5098 58.873,33.3125 52.623,32.2383 Z" id="Shape"></path>
                </g>
            </g>
        </g>
    </g>
</svg>