<?xml version="1.0" encoding="UTF-8"?>
<svg width="96px" height="109px" viewBox="0 0 96 109" version="1.1" xmlns="http://www.w3.org/2000/svg" xmlns:xlink="http://www.w3.org/1999/xlink">
    <!-- Generator: Sketch 60 (88103) - https://sketch.com -->
    <title>Regular-M</title>
    <desc>Created with Sketch.</desc>
    <g id="Page-1" stroke="none" stroke-width="1" fill="none" fill-rule="evenodd">
        <g id="trash" transform="translate(-1402.000000, -1032.000000)" fill="#000000" fill-rule="nonzero">
            <g id="Symbols" transform="translate(500.000000, 611.000000)">
                <g id="Regular-M" transform="translate(902.110000, 421.000000)">
                    <path d="M82.1602,97.27148 L85.5293,26.2754 L91.3887,26.2754 C93.391,26.2754 95.002,24.5664 95.002,22.5645 C95.002,20.5625 93.391,18.9023 91.3887,18.9023 L69.0742,18.9023 L69.0742,11.5781 C69.0742,4.5469 64.3379,0.0547 56.8184,0.0547 L38.5566,0.0547 C31.0371,0.0547 26.3496,4.5469 26.3496,11.5781 L26.3496,18.9023 L4.084,18.9023 C2.13086,18.9023 0.4707,20.6113 0.4707,22.5645 C0.4707,24.5664 2.13086,26.2754 4.084,26.2754 L9.9922,26.2754 L13.3613,97.32031 C13.7031,104.3027 18.293,108.7949 25.373,108.7949 L70.1484,108.7949 C77.1309,108.7949 81.8184,104.2539 82.1602,97.27148 Z M34.1621,12.0664 C34.1621,9.2832 36.1641,7.3301 39.1426,7.3301 L56.2812,7.3301 C59.2598,7.3301 61.3105,9.2832 61.3105,12.0664 L61.3105,18.9023 L34.1621,18.9023 L34.1621,12.0664 Z M26.0566,101.42188 C23.2734,101.42188 21.1738,99.32227 21.0273,96.44141 L17.6094,26.2754 L77.7168,26.2754 L74.4941,96.44141 C74.3477,99.37109 72.2969,101.42188 69.3672,101.42188 L26.0566,101.42188 Z M62.2383,92.87695 C63.8496,92.87695 65.0215,91.55859 65.0703,89.70312 L66.5352,38.4824 C66.584,36.6758 65.3633,35.3086 63.7031,35.3086 C62.1895,35.3086 60.9199,36.7246 60.8711,38.4824 L59.4062,89.6543 C59.3574,91.46094 60.5781,92.87695 62.2383,92.87695 Z M33.2832,92.87695 C34.9434,92.87695 36.1641,91.46094 36.1152,89.6543 L34.6016,38.4824 C34.5527,36.7246 33.2832,35.3086 31.7695,35.3086 C30.1094,35.3086 28.8887,36.6758 28.9375,38.4824 L30.4023,89.70312 C30.4512,91.55859 31.623,92.87695 33.2832,92.87695 Z M47.7363,92.87695 C49.3477,92.87695 50.7148,91.46094 50.7148,89.70312 L50.7148,38.4824 C50.7148,36.7246 49.3477,35.3086 47.7363,35.3086 C46.1738,35.3086 44.8066,36.7246 44.8066,38.4824 L44.8066,89.70312 C44.8066,91.46094 46.1738,92.87695 47.7363,92.87695 Z" id="Shape"></path>
                </g>
            </g>
        </g>
    </g>
</svg>